<svg xmlns="http://www.w3.org/2000/svg" viewBox="0 0 64 64" fill="none">
  <!-- Background circle: white pops on the purple header -->
  <circle cx="32" cy="32" r="30" fill="#ffffff"/>
  <!-- Workbench/wrench shape -->
  <path d="M22 20h20v4H22z" fill="#742774" rx="2"/>
  <rect x="20" y="24" width="24" height="18" rx="2" fill="#742774" opacity="0.92"/>
  <!-- Grid lines (representing components) -->
  <line x1="32" y1="24" x2="32" y2="42" stroke="#ffffff" stroke-width="1.5"/>
  <line x1="20" y1="33" x2="44" y2="33" stroke="#ffffff" stroke-width="1.5"/>
  <!-- PCF component blocks -->
  <rect x="22" y="26" width="8" height="5" rx="1" fill="#ffffff" opacity="0.35"/>
  <rect x="34" y="26" width="8" height="5" rx="1" fill="#ffffff" opacity="0.6"/>
  <rect x="22" y="35" width="8" height="5" rx="1" fill="#ffffff" opacity="0.6"/>
  <rect x="34" y="35" width="8" height="5" rx="1" fill="#ffffff" opacity="0.35"/>
  <!-- Tool indicator (small gear) -->
  <circle cx="48" cy="16" r="6" fill="#ff8c00"/>
  <circle cx="48" cy="16" r="3" fill="white"/>
  <path d="M48 10v2M48 20v2M42 16h2M52 16h2M44 12l1.5 1.5M51 18.5l1.5 1.5M44 20l1.5-1.5M51 13.5l1.5-1.5" stroke="white" stroke-width="1.2"/>
</svg>
